<svg width="1440" height="100" viewBox="0 0 1440 100" fill="none" xmlns="http://www.w3.org/2000/svg">
<path d="M80 35.7834C92.1457 35.7834 101.992 45.6295 101.992 57.7753C89.8461 57.7753 80 47.9292 80 35.7834Z" fill="#6EE7B7" fill-opacity="0.6"/>
<path d="M80 78.0083C92.1457 78.0083 101.992 87.8544 101.992 100C89.8461 100 80 90.154 80 78.0083Z" fill="#6EE7B7" fill-opacity="0.6"/>
<path d="M124.863 35.6677C124.863 47.8135 115.017 57.6595 102.871 57.6595C102.871 45.5138 112.718 35.6677 124.863 35.6677Z" fill="#6EE7B7" fill-opacity="0.6"/>
<path d="M102.432 9.99976C111.02 18.5881 111.02 32.5125 102.432 41.1009C93.8433 32.5125 93.8433 18.5881 102.432 9.99976Z" fill="#6EE7B7" fill-opacity="0.6"/>
<path d="M124.863 77.8921C124.863 90.0378 115.017 99.8839 102.871 99.8839C102.871 87.7382 112.718 77.8921 124.863 77.8921Z" fill="#6EE7B7" fill-opacity="0.6"/>
<path d="M80 56.896C92.1457 56.896 101.992 66.7421 101.992 78.8878C89.8461 78.8878 80 69.0417 80 56.896Z" fill="#6EE7B7" fill-opacity="0.6"/>
<path d="M124.863 56.78C124.863 68.9258 115.017 78.7718 102.871 78.7718C102.871 66.6261 112.718 56.78 124.863 56.78Z" fill="#6EE7B7" fill-opacity="0.6"/>
<path d="M168.007 58.616C175.834 58.616 182.179 64.9612 182.179 72.7884C174.352 72.7884 168.007 66.4432 168.007 58.616Z" fill="#451A03" fill-opacity="0.3"/>
<path d="M168.007 85.8276C175.834 85.8276 182.179 92.1728 182.179 100C174.352 100 168.007 93.6549 168.007 85.8276Z" fill="#451A03" fill-opacity="0.3"/>
<path d="M196.919 58.5413C196.919 66.3685 190.573 72.7137 182.746 72.7137C182.746 64.8865 189.091 58.5413 196.919 58.5413Z" fill="#451A03" fill-opacity="0.3"/>
<path d="M182.463 41.9998C187.997 47.5344 187.997 56.5079 182.463 62.0426C176.928 56.5079 176.928 47.5344 182.463 41.9998Z" fill="#451A03" fill-opacity="0.3"/>
<path d="M196.919 85.7524C196.919 93.5797 190.573 99.9249 182.746 99.9249C182.746 92.0977 189.091 85.7524 196.919 85.7524Z" fill="#451A03" fill-opacity="0.3"/>
<path d="M168.007 72.2214C175.834 72.2214 182.179 78.5666 182.179 86.3939C174.352 86.3939 168.007 80.0487 168.007 72.2214Z" fill="#451A03" fill-opacity="0.3"/>
<path d="M196.919 72.1462C196.919 79.9735 190.573 86.3187 182.746 86.3187C182.746 78.4915 189.091 72.1462 196.919 72.1462Z" fill="#451A03" fill-opacity="0.3"/>
<path d="M240.062 64.3242C246.81 64.3242 252.28 69.7943 252.28 76.5419C245.532 76.5419 240.062 71.0719 240.062 64.3242Z" fill="#4ADE80" fill-opacity="0.5"/>
<path d="M240.062 87.7825C246.81 87.7825 252.28 93.2525 252.28 100C245.532 100 240.062 94.5301 240.062 87.7825Z" fill="#4ADE80" fill-opacity="0.5"/>
<path d="M264.986 64.26C264.986 71.0076 259.516 76.4777 252.769 76.4777C252.769 69.73 258.239 64.26 264.986 64.26Z" fill="#4ADE80" fill-opacity="0.5"/>
<path d="M252.524 50C257.296 54.7713 257.296 62.5071 252.524 67.2784C247.753 62.5071 247.753 54.7713 252.524 50Z" fill="#4ADE80" fill-opacity="0.5"/>
<path d="M264.986 87.718C264.986 94.4657 259.516 99.9357 252.769 99.9357C252.769 93.1881 258.239 87.718 264.986 87.718Z" fill="#4ADE80" fill-opacity="0.5"/>
<path d="M240.062 76.0535C246.81 76.0535 252.28 81.5235 252.28 88.2711C245.532 88.2711 240.062 82.8011 240.062 76.0535Z" fill="#4ADE80" fill-opacity="0.5"/>
<path d="M264.986 75.989C264.986 82.7367 259.516 88.2067 252.769 88.2067C252.769 81.459 258.239 75.989 264.986 75.989Z" fill="#4ADE80" fill-opacity="0.5"/>
<path d="M308.13 50.0537C317.577 50.0537 325.235 57.7118 325.235 67.1585C315.788 67.1585 308.13 59.5004 308.13 50.0537Z" fill="#A3E635" fill-opacity="0.5"/>
<path d="M308.13 82.8953C317.577 82.8953 325.235 90.5533 325.235 100C315.788 100 308.13 92.3419 308.13 82.8953Z" fill="#A3E635" fill-opacity="0.5"/>
<path d="M343.024 49.9639C343.024 59.4106 335.366 67.0686 325.919 67.0686C325.919 57.6219 333.577 49.9639 343.024 49.9639Z" fill="#A3E635" fill-opacity="0.5"/>
<path d="M325.577 29.9998C332.256 36.6796 332.256 47.5097 325.577 54.1895C318.897 47.5097 318.897 36.6796 325.577 29.9998Z" fill="#A3E635" fill-opacity="0.5"/>
<path d="M343.024 82.8049C343.024 92.2516 335.366 99.9097 325.919 99.9097C325.919 90.463 333.577 82.8049 343.024 82.8049Z" fill="#A3E635" fill-opacity="0.5"/>
<path d="M308.13 66.4746C317.577 66.4746 325.235 74.1327 325.235 83.5794C315.788 83.5794 308.13 75.9213 308.13 66.4746Z" fill="#A3E635" fill-opacity="0.5"/>
<path d="M343.024 66.3843C343.024 75.831 335.366 83.489 325.919 83.489C325.919 74.0423 333.577 66.3843 343.024 66.3843Z" fill="#A3E635" fill-opacity="0.5"/>
<path d="M386.167 42.9182C396.963 42.9182 405.715 51.6703 405.715 62.4665C394.919 62.4665 386.167 53.7144 386.167 42.9182Z" fill="#451A03" fill-opacity="0.3"/>
<path d="M386.167 80.4517C396.963 80.4517 405.715 89.2037 405.715 99.9999C394.919 99.9999 386.167 91.2479 386.167 80.4517Z" fill="#451A03" fill-opacity="0.3"/>
<path d="M426.046 42.8157C426.046 53.6119 417.294 62.364 406.497 62.364C406.497 51.5677 415.249 42.8157 426.046 42.8157Z" fill="#451A03" fill-opacity="0.3"/>
<path d="M406.106 19.9998C413.74 27.6338 413.74 40.0111 406.106 47.6452C398.472 40.0111 398.472 27.6338 406.106 19.9998Z" fill="#451A03" fill-opacity="0.3"/>
<path d="M426.046 80.3486C426.046 91.1448 417.294 99.8969 406.497 99.8969C406.497 89.1007 415.249 80.3486 426.046 80.3486Z" fill="#451A03" fill-opacity="0.3"/>
<path d="M386.167 61.6851C396.963 61.6851 405.715 70.4371 405.715 81.2333C394.919 81.2333 386.167 72.4813 386.167 61.6851Z" fill="#451A03" fill-opacity="0.3"/>
<path d="M426.046 61.5823C426.046 72.3785 417.294 81.1306 406.497 81.1306C406.497 70.3343 415.249 61.5823 426.046 61.5823Z" fill="#451A03" fill-opacity="0.3"/>
<path d="M469.189 57.189C477.286 57.189 483.85 63.753 483.85 71.8502C475.753 71.8502 469.189 65.2861 469.189 57.189Z" fill="#4ADE80" fill-opacity="0.5"/>
<path d="M469.189 85.3389C477.286 85.3389 483.85 91.9029 483.85 100C475.753 100 469.189 93.436 469.189 85.3389Z" fill="#4ADE80" fill-opacity="0.5"/>
<path d="M499.098 57.1121C499.098 65.2092 492.534 71.7733 484.437 71.7733C484.437 63.6761 491.001 57.1121 499.098 57.1121Z" fill="#4ADE80" fill-opacity="0.5"/>
<path d="M484.144 40C489.869 45.7256 489.869 55.0085 484.144 60.7341C478.418 55.0085 478.418 45.7256 484.144 40Z" fill="#4ADE80" fill-opacity="0.5"/>
<path d="M499.098 85.2617C499.098 93.3589 492.534 99.9229 484.437 99.9229C484.437 91.8258 491.001 85.2617 499.098 85.2617Z" fill="#4ADE80" fill-opacity="0.5"/>
<path d="M469.189 71.2642C477.286 71.2642 483.85 77.8282 483.85 85.9254C475.753 85.9254 469.189 79.3613 469.189 71.2642Z" fill="#4ADE80" fill-opacity="0.5"/>
<path d="M499.098 71.1868C499.098 79.2839 492.534 85.848 484.437 85.848C484.437 77.7508 491.001 71.1868 499.098 71.1868Z" fill="#4ADE80" fill-opacity="0.5"/>
<path d="M542.242 60.7563C549.664 60.7563 555.681 66.7734 555.681 74.1958C548.259 74.1958 542.242 68.1787 542.242 60.7563Z" fill="#A3E635" fill-opacity="0.5"/>
<path d="M542.242 86.5605C549.664 86.5605 555.681 92.5776 555.681 100C548.259 100 542.242 93.9829 542.242 86.5605Z" fill="#A3E635" fill-opacity="0.5"/>
<path d="M569.658 60.6858C569.658 68.1082 563.641 74.1252 556.219 74.1252C556.219 66.7028 562.236 60.6858 569.658 60.6858Z" fill="#A3E635" fill-opacity="0.5"/>
<path d="M555.95 44.9998C561.198 50.2482 561.198 58.7576 555.95 64.006C550.702 58.7576 550.702 50.2482 555.95 44.9998Z" fill="#A3E635" fill-opacity="0.5"/>
<path d="M569.658 86.4895C569.658 93.9119 563.641 99.9289 556.219 99.9289C556.219 92.5065 562.236 86.4895 569.658 86.4895Z" fill="#A3E635" fill-opacity="0.5"/>
<path d="M542.242 73.6587C549.664 73.6587 555.681 79.6757 555.681 87.0981C548.259 87.0981 542.242 81.0811 542.242 73.6587Z" fill="#A3E635" fill-opacity="0.5"/>
<path d="M569.658 73.5876C569.658 81.01 563.641 87.0271 556.219 87.0271C556.219 79.6047 562.236 73.5876 569.658 73.5876Z" fill="#A3E635" fill-opacity="0.5"/>
<path d="M612.802 64.3242C619.549 64.3242 625.019 69.7943 625.019 76.5419C618.272 76.5419 612.802 71.0719 612.802 64.3242Z" fill="#451A03" fill-opacity="0.3"/>
<path d="M612.802 87.7822C619.549 87.7822 625.019 93.2523 625.019 99.9999C618.272 99.9999 612.802 94.5299 612.802 87.7822Z" fill="#451A03" fill-opacity="0.3"/>
<path d="M637.726 64.26C637.726 71.0076 632.256 76.4777 625.508 76.4777C625.508 69.73 630.978 64.26 637.726 64.26Z" fill="#451A03" fill-opacity="0.3"/>
<path d="M625.264 49.9998C630.035 54.7711 630.035 62.5069 625.264 67.2782C620.493 62.5069 620.493 54.7711 625.264 49.9998Z" fill="#451A03" fill-opacity="0.3"/>
<path d="M637.726 87.7178C637.726 94.4654 632.256 99.9354 625.508 99.9354C625.508 93.1878 630.978 87.7178 637.726 87.7178Z" fill="#451A03" fill-opacity="0.3"/>
<path d="M612.802 76.0532C619.549 76.0532 625.019 81.5233 625.019 88.2709C618.272 88.2709 612.802 82.8009 612.802 76.0532Z" fill="#451A03" fill-opacity="0.3"/>
<path d="M637.726 75.9885C637.726 82.7362 632.256 88.2062 625.508 88.2062C625.508 81.4586 630.978 75.9885 637.726 75.9885Z" fill="#451A03" fill-opacity="0.3"/>
<path d="M680.869 42.9185C691.665 42.9185 700.417 51.6705 700.417 62.4667C689.621 62.4667 680.869 53.7147 680.869 42.9185Z" fill="#A3E635" fill-opacity="0.5"/>
<path d="M680.869 80.4517C691.665 80.4517 700.417 89.2037 700.417 99.9999C689.621 99.9999 680.869 91.2479 680.869 80.4517Z" fill="#A3E635" fill-opacity="0.5"/>
<path d="M720.748 42.8157C720.748 53.6119 711.995 62.364 701.199 62.364C701.199 51.5677 709.951 42.8157 720.748 42.8157Z" fill="#A3E635" fill-opacity="0.5"/>
<path d="M700.808 19.9998C708.442 27.6338 708.442 40.0111 700.808 47.6452C693.174 40.0111 693.174 27.6338 700.808 19.9998Z" fill="#A3E635" fill-opacity="0.5"/>
<path d="M720.748 80.3486C720.748 91.1448 711.995 99.8969 701.199 99.8969C701.199 89.1007 709.951 80.3486 720.748 80.3486Z" fill="#A3E635" fill-opacity="0.5"/>
<path d="M680.869 61.6853C691.665 61.6853 700.417 70.4374 700.417 81.2336C689.621 81.2336 680.869 72.4815 680.869 61.6853Z" fill="#A3E635" fill-opacity="0.5"/>
<path d="M720.748 61.5823C720.748 72.3785 711.995 81.1306 701.199 81.1306C701.199 70.3343 709.951 61.5823 720.748 61.5823Z" fill="#A3E635" fill-opacity="0.5"/>
<path d="M763.891 53.6216C772.663 53.6216 779.774 60.7326 779.774 69.5046C771.002 69.5046 763.891 62.3935 763.891 53.6216Z" fill="#6EE7B7" fill-opacity="0.6"/>
<path d="M763.891 84.1172C772.663 84.1172 779.774 91.2282 779.774 100C771.002 100 763.891 92.8891 763.891 84.1172Z" fill="#6EE7B7" fill-opacity="0.6"/>
<path d="M796.292 53.5381C796.292 62.31 789.181 69.4211 780.41 69.4211C780.41 60.6491 787.521 53.5381 796.292 53.5381Z" fill="#6EE7B7" fill-opacity="0.6"/>
<path d="M780.092 35C786.294 41.2027 786.294 51.2592 780.092 57.4619C773.889 51.2592 773.889 41.2027 780.092 35Z" fill="#6EE7B7" fill-opacity="0.6"/>
<path d="M796.292 84.0334C796.292 92.8054 789.181 99.9164 780.41 99.9164C780.41 91.1445 787.521 84.0334 796.292 84.0334Z" fill="#6EE7B7" fill-opacity="0.6"/>
<path d="M763.891 68.8696C772.663 68.8696 779.774 75.9807 779.774 84.7526C771.002 84.7526 763.891 77.6416 763.891 68.8696Z" fill="#6EE7B7" fill-opacity="0.6"/>
<path d="M796.292 68.7856C796.292 77.5576 789.181 84.6686 780.41 84.6686C780.41 75.8967 787.521 68.7856 796.292 68.7856Z" fill="#6EE7B7" fill-opacity="0.6"/>
<path d="M839.436 35.7834C851.582 35.7834 861.428 45.6295 861.428 57.7753C849.282 57.7753 839.436 47.9292 839.436 35.7834Z" fill="#4ADE80" fill-opacity="0.5"/>
<path d="M839.436 78.0083C851.582 78.0083 861.428 87.8544 861.428 100C849.282 100 839.436 90.154 839.436 78.0083Z" fill="#4ADE80" fill-opacity="0.5"/>
<path d="M884.299 35.6677C884.299 47.8135 874.453 57.6595 862.307 57.6595C862.308 45.5138 872.154 35.6677 884.299 35.6677Z" fill="#4ADE80" fill-opacity="0.5"/>
<path d="M861.868 9.99976C870.456 18.5881 870.456 32.5125 861.868 41.1009C853.279 32.5125 853.279 18.5881 861.868 9.99976Z" fill="#4ADE80" fill-opacity="0.5"/>
<path d="M884.299 77.8921C884.299 90.0378 874.453 99.8839 862.307 99.8839C862.308 87.7382 872.154 77.8921 884.299 77.8921Z" fill="#4ADE80" fill-opacity="0.5"/>
<path d="M839.436 56.896C851.582 56.896 861.428 66.7421 861.428 78.8878C849.282 78.8878 839.436 69.0417 839.436 56.896Z" fill="#4ADE80" fill-opacity="0.5"/>
<path d="M884.299 56.78C884.299 68.9258 874.453 78.7718 862.307 78.7718C862.308 66.6261 872.154 56.78 884.299 56.78Z" fill="#4ADE80" fill-opacity="0.5"/>
<path d="M927.443 50.0537C936.89 50.0537 944.548 57.7118 944.548 67.1585C935.101 67.1585 927.443 59.5004 927.443 50.0537Z" fill="#451A03" fill-opacity="0.3"/>
<path d="M927.443 82.8953C936.89 82.8953 944.548 90.5533 944.548 100C935.101 100 927.443 92.3419 927.443 82.8953Z" fill="#451A03" fill-opacity="0.3"/>
<path d="M962.337 49.9639C962.337 59.4106 954.679 67.0686 945.232 67.0686C945.232 57.6219 952.89 49.9639 962.337 49.9639Z" fill="#451A03" fill-opacity="0.3"/>
<path d="M944.89 29.9998C951.569 36.6796 951.569 47.5097 944.89 54.1895C938.21 47.5097 938.21 36.6796 944.89 29.9998Z" fill="#451A03" fill-opacity="0.3"/>
<path d="M962.337 82.8049C962.337 92.2516 954.679 99.9097 945.232 99.9097C945.232 90.463 952.89 82.8049 962.337 82.8049Z" fill="#451A03" fill-opacity="0.3"/>
<path d="M927.443 66.4746C936.89 66.4746 944.548 74.1327 944.548 83.5794C935.101 83.5794 927.443 75.9213 927.443 66.4746Z" fill="#451A03" fill-opacity="0.3"/>
<path d="M962.337 66.3843C962.337 75.831 954.679 83.489 945.232 83.489C945.232 74.0423 952.89 66.3843 962.337 66.3843Z" fill="#451A03" fill-opacity="0.3"/>
<path d="M1005.48 57.189C1013.58 57.189 1020.14 63.753 1020.14 71.8502C1012.04 71.8502 1005.48 65.2861 1005.48 57.189Z" fill="#6EE7B7" fill-opacity="0.6"/>
<path d="M1005.48 85.3389C1013.58 85.3389 1020.14 91.9029 1020.14 100C1012.04 100 1005.48 93.436 1005.48 85.3389Z" fill="#6EE7B7" fill-opacity="0.6"/>
<path d="M1035.39 57.1121C1035.39 65.2092 1028.82 71.7733 1020.73 71.7733C1020.73 63.6761 1027.29 57.1121 1035.39 57.1121Z" fill="#6EE7B7" fill-opacity="0.6"/>
<path d="M1020.43 40C1026.16 45.7256 1026.16 55.0085 1020.43 60.7341C1014.71 55.0085 1014.71 45.7256 1020.43 40Z" fill="#6EE7B7" fill-opacity="0.6"/>
<path d="M1035.39 85.2617C1035.39 93.3589 1028.82 99.9229 1020.73 99.9229C1020.73 91.8258 1027.29 85.2617 1035.39 85.2617Z" fill="#6EE7B7" fill-opacity="0.6"/>
<path d="M1005.48 71.2642C1013.58 71.2642 1020.14 77.8282 1020.14 85.9254C1012.04 85.9254 1005.48 79.3613 1005.48 71.2642Z" fill="#6EE7B7" fill-opacity="0.6"/>
<path d="M1035.39 71.1868C1035.39 79.2839 1028.82 85.848 1020.73 85.848C1020.73 77.7508 1027.29 71.1868 1035.39 71.1868Z" fill="#6EE7B7" fill-opacity="0.6"/>
<path d="M1078.53 42.9185C1089.33 42.9185 1098.08 51.6705 1098.08 62.4667C1087.28 62.4667 1078.53 53.7147 1078.53 42.9185Z" fill="#451A03" fill-opacity="0.3"/>
<path d="M1078.53 80.4517C1089.33 80.4517 1098.08 89.2037 1098.08 99.9999C1087.28 99.9999 1078.53 91.2479 1078.53 80.4517Z" fill="#451A03" fill-opacity="0.3"/>
<path d="M1118.41 42.8157C1118.41 53.6119 1109.66 62.364 1098.86 62.364C1098.86 51.5677 1107.61 42.8157 1118.41 42.8157Z" fill="#451A03" fill-opacity="0.3"/>
<path d="M1098.47 19.9998C1106.11 27.6338 1106.11 40.0111 1098.47 47.6452C1090.84 40.0111 1090.84 27.6338 1098.47 19.9998Z" fill="#451A03" fill-opacity="0.3"/>
<path d="M1118.41 80.3486C1118.41 91.1448 1109.66 99.8969 1098.86 99.8969C1098.86 89.1007 1107.61 80.3486 1118.41 80.3486Z" fill="#451A03" fill-opacity="0.3"/>
<path d="M1078.53 61.6853C1089.33 61.6853 1098.08 70.4374 1098.08 81.2336C1087.28 81.2336 1078.53 72.4815 1078.53 61.6853Z" fill="#451A03" fill-opacity="0.3"/>
<path d="M1118.41 61.5823C1118.41 72.3785 1109.66 81.1306 1098.86 81.1306C1098.86 70.3343 1107.61 61.5823 1118.41 61.5823Z" fill="#451A03" fill-opacity="0.3"/>
<path d="M1161.55 64.3242C1168.3 64.3242 1173.77 69.7943 1173.77 76.5419C1167.02 76.5419 1161.55 71.0719 1161.55 64.3242Z" fill="#4ADE80" fill-opacity="0.5"/>
<path d="M1161.55 87.7825C1168.3 87.7825 1173.77 93.2525 1173.77 100C1167.02 100 1161.55 94.5301 1161.55 87.7825Z" fill="#4ADE80" fill-opacity="0.5"/>
<path d="M1186.48 64.26C1186.48 71.0076 1181.01 76.4777 1174.26 76.4777C1174.26 69.73 1179.73 64.26 1186.48 64.26Z" fill="#4ADE80" fill-opacity="0.5"/>
<path d="M1174.02 50C1178.79 54.7713 1178.79 62.5071 1174.02 67.2784C1169.25 62.5071 1169.25 54.7713 1174.02 50Z" fill="#4ADE80" fill-opacity="0.5"/>
<path d="M1186.48 87.718C1186.48 94.4657 1181.01 99.9357 1174.26 99.9357C1174.26 93.1881 1179.73 87.718 1186.48 87.718Z" fill="#4ADE80" fill-opacity="0.5"/>
<path d="M1161.55 76.0535C1168.3 76.0535 1173.77 81.5235 1173.77 88.2711C1167.02 88.2711 1161.55 82.8011 1161.55 76.0535Z" fill="#4ADE80" fill-opacity="0.5"/>
<path d="M1186.48 75.989C1186.48 82.7367 1181.01 88.2067 1174.26 88.2067C1174.26 81.459 1179.73 75.989 1186.48 75.989Z" fill="#4ADE80" fill-opacity="0.5"/>
<path d="M1229.62 46.4861C1239.74 46.4861 1247.95 54.6911 1247.95 64.8126C1237.83 64.8126 1229.62 56.6075 1229.62 46.4861Z" fill="#451A03" fill-opacity="0.3"/>
<path d="M1229.62 81.6733C1239.74 81.6733 1247.95 89.8784 1247.95 99.9999C1237.83 99.9999 1229.62 91.7948 1229.62 81.6733Z" fill="#451A03" fill-opacity="0.3"/>
<path d="M1267.01 46.3896C1267.01 56.5111 1258.8 64.7162 1248.68 64.7162C1248.68 54.5947 1256.89 46.3896 1267.01 46.3896Z" fill="#451A03" fill-opacity="0.3"/>
<path d="M1248.32 24.9998C1255.47 32.1567 1255.47 43.7604 1248.32 50.9174C1241.16 43.7604 1241.16 32.1567 1248.32 24.9998Z" fill="#451A03" fill-opacity="0.3"/>
<path d="M1267.01 81.5767C1267.01 91.6981 1258.8 99.9032 1248.68 99.9032C1248.68 89.7817 1256.89 81.5767 1267.01 81.5767Z" fill="#451A03" fill-opacity="0.3"/>
<path d="M1229.62 64.0801C1239.74 64.0801 1247.95 72.2851 1247.95 82.4066C1237.83 82.4066 1229.62 74.2015 1229.62 64.0801Z" fill="#451A03" fill-opacity="0.3"/>
<path d="M1267.01 63.9834C1267.01 74.1049 1258.8 82.3099 1248.68 82.3099C1248.68 72.1885 1256.89 63.9834 1267.01 63.9834Z" fill="#451A03" fill-opacity="0.3"/>
<path d="M1310.15 28.6484C1323.65 28.6484 1334.59 39.5885 1334.59 53.0838C1321.09 53.0838 1310.15 42.1437 1310.15 28.6484Z" fill="#A3E635" fill-opacity="0.5"/>
<path d="M1310.15 75.5647C1323.65 75.5647 1334.59 86.5048 1334.59 100C1321.09 100 1310.15 89.06 1310.15 75.5647Z" fill="#A3E635" fill-opacity="0.5"/>
<path d="M1360 28.5203C1360 42.0155 1349.06 52.9556 1335.56 52.9556C1335.56 39.4603 1346.5 28.5203 1360 28.5203Z" fill="#A3E635" fill-opacity="0.5"/>
<path d="M1335.08 0C1344.62 9.5426 1344.62 25.0142 1335.08 34.5568C1325.53 25.0142 1325.53 9.5426 1335.08 0Z" fill="#A3E635" fill-opacity="0.5"/>
<path d="M1360 75.436C1360 88.9313 1349.06 99.8714 1335.56 99.8714C1335.56 86.3761 1346.5 75.436 1360 75.436Z" fill="#A3E635" fill-opacity="0.5"/>
<path d="M1310.15 52.1067C1323.65 52.1067 1334.59 63.0468 1334.59 76.542C1321.09 76.542 1310.15 65.602 1310.15 52.1067Z" fill="#A3E635" fill-opacity="0.5"/>
<path d="M1360 51.978C1360 65.4733 1349.06 76.4134 1335.56 76.4134C1335.56 62.9181 1346.5 51.978 1360 51.978Z" fill="#A3E635" fill-opacity="0.5"/>
</svg>
